<svg xmlns="http://www.w3.org/2000/svg" width="236.93" height="236.011" viewBox="0 0 236.93 236.011">
  <g id="ico-user" transform="translate(0 0.388)">
    <g id="Group_9" data-name="Group 9" transform="translate(89.901 64.606)">
      <g id="Group_8" data-name="Group 8">
        <path id="Path_42" data-name="Path 42" d="M327.425,278.879A26.488,26.488,0,0,0,306.7,260.352l-24.938-4.538v-1.969a38.071,38.071,0,0,0,18.284-25.576,15.226,15.226,0,0,0,12.119-14.886V175.847a23.833,23.833,0,0,0-17.026-22.867l-1.9-1.9a46.8,46.8,0,0,0-79.884,33.09v29.213a15.226,15.226,0,0,0,12.119,14.886,38.075,38.075,0,0,0,18.284,25.576v1.969l-24.938,4.534A26.5,26.5,0,0,0,198.1,278.879l-8.851,29.514H336.277Zm-26.66-58.951V206.839a7.535,7.535,0,0,1,0,13.088Zm-76.007,0a7.535,7.535,0,0,1,0-13.088Zm0-25.546v4.34a15.074,15.074,0,0,0-3.8,1.573V184.17a39.194,39.194,0,0,1,66.909-27.712l3.352,3.356,1.022.251a16.242,16.242,0,0,1,12.325,15.783v24.448a14.936,14.936,0,0,0-3.8-1.573v-4.34H288.715A33.056,33.056,0,0,1,262.4,181.228l-3.021-4.036-7.551,7.555a32.7,32.7,0,0,1-23.266,9.634Zm7.6,26.6V201.807A40.225,40.225,0,0,0,257.2,190.121l1.478-1.478a40.709,40.709,0,0,0,30.038,13.339h4.45v19a30.4,30.4,0,1,1-60.806,0Zm19.325,36.347a37.861,37.861,0,0,0,22.156,0l-11.078,8.308Zm5.294,13.468-7.757,7.753-5.032-15.091,2.421-.437Zm21.936-7.776,2.417.441L276.3,278.556l-7.757-7.753Zm-79.45,37.768,5.921-19.728a18.907,18.907,0,0,1,14.8-13.233l16.456-2.991,9.261,27.788,16.858-16.866,16.862,16.862,9.262-27.788,16.456,2.991a18.925,18.925,0,0,1,14.8,13.233l5.917,19.732Z" transform="translate(-189.248 -137.376)" fill="#3957ff"/>
      </g>
    </g>
    <g id="Group_11" data-name="Group 11" transform="translate(0 0)">
      <g id="Group_10" data-name="Group 10">
        <path id="Path_43" data-name="Path 43" d="M98.809,62.824V38.737L88.5,35.99q-.456-1.191-1-2.383l5.355-9.25L75.829,7.331l-9.25,5.355c-.79-.361-1.585-.692-2.375-1L61.444,1.376H37.365L34.61,11.694q-1.191.456-2.375,1l-9.25-5.359L5.959,24.357l5.355,9.25c-.365.794-.7,1.589-1,2.383L0,38.737V62.824l10.314,2.748c.3.794.635,1.589,1,2.383L5.959,77.2,22.985,94.23l9.25-5.355c.79.361,1.585.692,2.375,1l2.755,10.314H61.444L64.2,89.868q1.191-.456,2.375-1l9.25,5.355L92.851,77.2,87.5,67.951c.361-.794.7-1.589,1-2.383ZM83.35,75.954l-8.771,8.775-7.734-4.481L65,81.2a34.607,34.607,0,0,1-5.123,2.143l-1.972.635-2.3,8.612H43.2l-2.3-8.612-1.972-.635A35.019,35.019,0,0,1,33.812,81.2l-1.847-.946-7.734,4.481L15.46,75.954l4.477-7.73-.946-1.847a33.981,33.981,0,0,1-2.14-5.123l-.635-1.976L7.6,56.983v-12.4l8.615-2.3.635-1.976a34.31,34.31,0,0,1,2.14-5.123l.946-1.847-4.477-7.73,8.771-8.775,7.734,4.481,1.847-.946a34.608,34.608,0,0,1,5.123-2.143l1.972-.635,2.3-8.612h12.4l2.3,8.612,1.972.635A35.02,35.02,0,0,1,65,20.366l1.847.946,7.734-4.481,8.771,8.775-4.477,7.73.946,1.847a33.981,33.981,0,0,1,2.14,5.123l.635,1.976,8.615,2.3v12.4l-8.615,2.3-.635,1.976a34.311,34.311,0,0,1-2.14,5.123l-.946,1.847Z" transform="translate(0 -1.376)" fill="#3957ff"/>
      </g>
    </g>
    <g id="Group_13" data-name="Group 13" transform="translate(22.802 22.802)">
      <g id="Group_12" data-name="Group 12">
        <path id="Path_44" data-name="Path 44" d="M95.953,91.853a26.6,26.6,0,1,0-5.134,5.218l-4.636-6.02A18.821,18.821,0,0,1,74.6,94.98a19,19,0,1,1,19-19,18.831,18.831,0,0,1-3.747,11.333Z" transform="translate(-48 -49.376)" fill="#3957ff"/>
      </g>
    </g>
    <g id="Group_15" data-name="Group 15" transform="translate(163.416 0)">
      <g id="Group_14" data-name="Group 14">
        <path id="Path_45" data-name="Path 45" d="M409.72,48.094l-4.914,4.914V39.38a38.047,38.047,0,0,0-38-38H344v7.6h22.8a30.438,30.438,0,0,1,30.4,30.4V53.008l-4.914-4.914-5.374,5.374,14.088,14.088,14.088-14.088Z" transform="translate(-344 -1.376)" fill="#3957ff"/>
      </g>
    </g>
    <g id="Group_17" data-name="Group 17" transform="translate(1.114 169.443)">
      <g id="Group_16" data-name="Group 16">
        <path id="Path_46" data-name="Path 46" d="M20.232,386.24V372.612l4.914,4.914,5.374-5.374L16.432,358.064,2.344,372.152l5.374,5.374,4.914-4.914V386.24a38.047,38.047,0,0,0,38,38v-7.6A30.438,30.438,0,0,1,20.232,386.24Z" transform="translate(-2.344 -358.064)" fill="#3957ff"/>
      </g>
    </g>
    <g id="Group_19" data-name="Group 19" transform="translate(0 114.011)">
      <g id="Group_18" data-name="Group 18">
        <rect id="Rectangle_3" data-name="Rectangle 3" width="99" height="8" transform="translate(0.178 -0.399)" fill="#3957ff"/>
      </g>
    </g>
    <g id="Group_21" data-name="Group 21" transform="translate(0 144.414)">
      <g id="Group_20" data-name="Group 20">
        <rect id="Rectangle_4" data-name="Rectangle 4" width="99" height="7" transform="translate(0.178 0.198)" fill="#3957ff"/>
      </g>
    </g>
    <g id="Group_23" data-name="Group 23" transform="translate(0 129.212)">
      <g id="Group_22" data-name="Group 22">
        <rect id="Rectangle_5" data-name="Rectangle 5" width="45" height="7" transform="translate(0.178 0.399)" fill="#3957ff"/>
      </g>
    </g>
    <g id="Group_25" data-name="Group 25" transform="translate(53.205 129.212)">
      <g id="Group_24" data-name="Group 24">
        <path id="Path_47" data-name="Path 47" d="M133.852,273.376H112v7.6h45.6v-7.6Z" transform="translate(-112 -273.376)" fill="#3957ff"/>
      </g>
    </g>
    <g id="Group_27" data-name="Group 27" transform="translate(148.214 0)">
      <g id="Group_26" data-name="Group 26">
        <rect id="Rectangle_6" data-name="Rectangle 6" width="8" height="8" transform="translate(-0.036 -0.388)" fill="#3957ff"/>
      </g>
    </g>
    <g id="Group_29" data-name="Group 29" transform="translate(133.013 0)">
      <g id="Group_28" data-name="Group 28">
        <rect id="Rectangle_7" data-name="Rectangle 7" width="7" height="8" transform="translate(0.165 -0.388)" fill="#3957ff"/>
      </g>
    </g>
    <g id="Group_31" data-name="Group 31" transform="translate(57.005 228.022)">
      <g id="Group_30" data-name="Group 30">
        <rect id="Rectangle_8" data-name="Rectangle 8" width="7" height="8" transform="translate(0.173 -0.41)" fill="#3957ff"/>
      </g>
    </g>
    <g id="Group_33" data-name="Group 33" transform="translate(72.207 228.022)">
      <g id="Group_32" data-name="Group 32">
        <rect id="Rectangle_9" data-name="Rectangle 9" width="8" height="8" transform="translate(-0.029 -0.41)" fill="#3957ff"/>
      </g>
    </g>
  </g>
</svg>
