<svg id="ico-quiz" xmlns="http://www.w3.org/2000/svg" width="243.022" height="243.223" viewBox="0 0 243.022 243.223">
  <path id="Path_30" data-name="Path 30" d="M70.576,128.03a22.754,22.754,0,1,0-22.753-22.754A22.78,22.78,0,0,0,70.576,128.03Zm0-38.382a15.628,15.628,0,1,1-15.628,15.628A15.645,15.645,0,0,1,70.576,89.649Z" transform="translate(-25.206 -43.321)" fill="#3957ff"/>
  <path id="Path_31" data-name="Path 31" d="M154.637,105.277a22.753,22.753,0,1,0,22.754-22.754A22.78,22.78,0,0,0,154.637,105.277Zm38.381,0a15.628,15.628,0,1,1-15.628-15.628A15.646,15.646,0,0,1,193.018,105.277Z" transform="translate(-81.278 -43.321)" fill="#3957ff"/>
  <path id="Path_32" data-name="Path 32" d="M284.2,128.03a22.754,22.754,0,1,0-22.754-22.754A22.78,22.78,0,0,0,284.2,128.03Zm0-38.382a15.628,15.628,0,1,1-15.628,15.628A15.645,15.645,0,0,1,284.2,89.649Z" transform="translate(-137.351 -43.321)" fill="#3957ff"/>
  <path id="Path_33" data-name="Path 33" d="M151.342,51.131H51.385a3.563,3.563,0,1,0,0,7.126h99.957a3.563,3.563,0,0,0,0-7.126Z" transform="translate(-25.205 -26.841)" fill="#3957ff"/>
  <path id="Path_34" data-name="Path 34" d="M70.576,277.569a22.754,22.754,0,1,0-22.753-22.754A22.78,22.78,0,0,0,70.576,277.569Zm0-38.382a15.628,15.628,0,1,1-15.628,15.628,15.645,15.645,0,0,1,15.628-15.628Z" transform="translate(-25.206 -121.822)" fill="#3957ff"/>
  <path id="Path_35" data-name="Path 35" d="M154.637,254.816a22.753,22.753,0,1,0,22.754-22.754A22.78,22.78,0,0,0,154.637,254.816Zm38.381,0a15.628,15.628,0,1,1-15.628-15.628A15.646,15.646,0,0,1,193.018,254.816Z" transform="translate(-81.278 -121.822)" fill="#3957ff"/>
  <path id="Path_36" data-name="Path 36" d="M51.385,207.8h99.957a3.563,3.563,0,0,0,0-7.126H51.385a3.563,3.563,0,1,0,0,7.126Z" transform="translate(-25.205 -105.343)" fill="#3957ff"/>
  <path id="Path_37" data-name="Path 37" d="M70.576,432.481a22.754,22.754,0,1,0-22.753-22.754A22.78,22.78,0,0,0,70.576,432.481Zm0-38.382a15.628,15.628,0,1,1-15.628,15.628A15.645,15.645,0,0,1,70.576,394.1Z" transform="translate(-25.206 -203.144)" fill="#3957ff"/>
  <path id="Path_38" data-name="Path 38" d="M154.637,409.728a22.753,22.753,0,1,0,22.754-22.754A22.78,22.78,0,0,0,154.637,409.728Zm38.381,0A15.628,15.628,0,1,1,177.391,394.1,15.646,15.646,0,0,1,193.018,409.728Z" transform="translate(-81.278 -203.144)" fill="#3957ff"/>
  <path id="Path_39" data-name="Path 39" d="M284.2,432.481a22.754,22.754,0,1,0-22.754-22.754A22.78,22.78,0,0,0,284.2,432.481Zm0-38.382a15.628,15.628,0,1,1-15.628,15.628A15.645,15.645,0,0,1,284.2,394.1Z" transform="translate(-137.351 -203.144)" fill="#3957ff"/>
  <path id="Path_40" data-name="Path 40" d="M51.385,362.708h99.957a3.563,3.563,0,0,0,0-7.126H51.385a3.563,3.563,0,0,0,0,7.126Z" transform="translate(-25.205 -186.664)" fill="#3957ff"/>
  <path id="Path_41" data-name="Path 41" d="M229.952,43.795l2.213-5.551a9.712,9.712,0,0,0-5.418-12.6l-9.654-3.85a9.7,9.7,0,0,0-12.6,5.418l-4.413,11.067a12.7,12.7,0,0,0-4.629,3.93q-1.5,2.074-3.008,4.33V14.622A14.641,14.641,0,0,0,177.813,0H14.833A14.638,14.638,0,0,0,.212,14.622V192.509a3.563,3.563,0,1,0,7.126,0V14.622a7.5,7.5,0,0,1,7.5-7.5H177.812a7.507,7.507,0,0,1,7.5,7.5V58.083a302.672,302.672,0,0,0-17.95,37.687c-2.534,6.355-4.834,12.671-6.874,18.843a22.757,22.757,0,1,0-13.421,41.135,22.969,22.969,0,0,0,3.626-.286c-2.07,16.962.248,26.906,6.907,29.562a8.977,8.977,0,0,0,3.352.639c6.389,0,14.2-6.4,23.281-19.1.36-.5.719-1.016,1.079-1.533V228.6a7.507,7.507,0,0,1-7.5,7.5H14.833a7.5,7.5,0,0,1-7.5-7.5V206.761a3.563,3.563,0,0,0-7.126,0V228.6a14.638,14.638,0,0,0,14.621,14.622H177.812A14.641,14.641,0,0,0,192.439,228.6v-74.73a296.933,296.933,0,0,0,19.49-40.332,316.632,316.632,0,0,0,10.709-31.371,3.563,3.563,0,0,0-6.86-1.928A309.57,309.57,0,0,1,205.31,110.9c-3.323,8.334-6.888,16.326-10.575,23.747l-29.414-11.728c2.431-7.923,5.337-16.173,8.661-24.51,8.23-20.642,17.9-39.119,27.241-52.03a5.638,5.638,0,0,1,6.671-1.926l9.935,3.962a5.639,5.639,0,0,1,3.516,5.989c-.505,3.779-1.236,7.888-2.17,12.214a3.563,3.563,0,0,0,6.965,1.5c.974-4.51,1.737-8.808,2.267-12.773a12.73,12.73,0,0,0-.219-4.559c5.527,2.564,8.186,7.141,7.9,13.666-.4,9.2-9.035,26.042-16.649,40.9-9.324,18.193-14.965,29.662-13.529,35.951a3.563,3.563,0,0,0,6.947-1.586c-.168-.735-.2-3.286,3.134-11.066,2.469-5.766,6.025-12.7,9.789-20.05,8.335-16.264,16.953-33.081,17.427-43.837.433-9.893-4.35-17.357-13.255-20.975Zm-98.514,89.2a15.633,15.633,0,0,1,26.72-11.017,226.661,226.661,0,0,0-6.321,25.9,15.637,15.637,0,0,1-20.4-14.886Zm60.03,8.022a191.225,191.225,0,0,1-13.03,21.405c-10.229,14.3-16.382,16.712-18.2,15.985s-4.627-6.7-2.208-24.123a191.431,191.431,0,0,1,5.279-24.494ZM210.533,37.835a12.8,12.8,0,0,0-2.34-.676l2.914-7.31a2.576,2.576,0,0,1,3.346-1.438l9.654,3.85a2.577,2.577,0,0,1,1.438,3.345l-2.915,7.311a12.822,12.822,0,0,0-2.165-1.119Z" transform="translate(-0.212 0)" fill="#3957ff"/>
</svg>
