<svg xmlns="http://www.w3.org/2000/svg" width="206" height="207" viewBox="0 0 206 207">
  <g id="ico-calendar" transform="translate(-0.5)">
    <rect id="Rectangle_1" data-name="Rectangle 1" width="206" height="167" transform="translate(0.5 40)" fill="#e7eced"/>
    <g id="Group_6" data-name="Group 6" transform="translate(30.793 2.804)">
      <path id="Path_14" data-name="Path 14" d="M35.733,1.508,31.947,7.521C52.622,20.535,92.223,41.692,92.621,41.905l3.342-6.265C95.565,35.431,56.188,14.39,35.733,1.508Z" transform="translate(49.451 -1.508)" fill="#7383bf"/>
      <path id="Path_15" data-name="Path 15" d="M9.029,35.64l3.342,6.265c.4-.213,40-21.371,60.674-34.384L69.259,1.508C48.8,14.387,9.427,35.431,9.029,35.64Z" transform="translate(-9.029 -1.508)" fill="#7383bf"/>
    </g>
    <g id="Group_7" data-name="Group 7" transform="translate(25.362 93.345)">
      <circle id="Ellipse_2" data-name="Ellipse 2" cx="3.5" cy="3.5" r="3.5" transform="translate(50.138 -0.345)" fill="#424a60"/>
      <ellipse id="Ellipse_3" data-name="Ellipse 3" cx="4" cy="3.5" rx="4" ry="3.5" transform="translate(74.138 -0.345)" fill="#424a60"/>
      <circle id="Ellipse_4" data-name="Ellipse 4" cx="3.5" cy="3.5" r="3.5" transform="translate(99.138 -0.345)" fill="#424a60"/>
      <circle id="Ellipse_5" data-name="Ellipse 5" cx="3.5" cy="3.5" r="3.5" transform="translate(124.138 -0.345)" fill="#424a60"/>
      <circle id="Ellipse_6" data-name="Ellipse 6" cx="3.5" cy="3.5" r="3.5" transform="translate(149.138 -0.345)" fill="#424a60"/>
      <circle id="Ellipse_7" data-name="Ellipse 7" cx="3.5" cy="3.5" r="3.5" transform="translate(0.138 28.655)" fill="#efce4a"/>
      <circle id="Ellipse_8" data-name="Ellipse 8" cx="3.5" cy="3.5" r="3.5" transform="translate(25.138 28.655)" fill="#ed7161"/>
      <circle id="Ellipse_9" data-name="Ellipse 9" cx="3.5" cy="3.5" r="3.5" transform="translate(0.138 -0.345)" fill="#949493"/>
      <circle id="Ellipse_10" data-name="Ellipse 10" cx="3.5" cy="3.5" r="3.5" transform="translate(25.138 -0.345)" fill="#949493"/>
      <circle id="Ellipse_11" data-name="Ellipse 11" cx="3.5" cy="3.5" r="3.5" transform="translate(50.138 28.655)" fill="#424a60"/>
      <ellipse id="Ellipse_12" data-name="Ellipse 12" cx="4" cy="3.5" rx="4" ry="3.5" transform="translate(74.138 28.655)" fill="#424a60"/>
      <circle id="Ellipse_13" data-name="Ellipse 13" cx="3.5" cy="3.5" r="3.5" transform="translate(99.138 28.655)" fill="#424a60"/>
      <circle id="Ellipse_14" data-name="Ellipse 14" cx="3.5" cy="3.5" r="3.5" transform="translate(124.138 28.655)" fill="#424a60"/>
      <circle id="Ellipse_15" data-name="Ellipse 15" cx="3.5" cy="3.5" r="3.5" transform="translate(149.138 28.655)" fill="#424a60"/>
      <circle id="Ellipse_16" data-name="Ellipse 16" cx="3.5" cy="3.5" r="3.5" transform="translate(0.138 53.655)" fill="#efce4a"/>
      <circle id="Ellipse_17" data-name="Ellipse 17" cx="3.5" cy="3.5" r="3.5" transform="translate(25.138 53.655)" fill="#ed7161"/>
      <circle id="Ellipse_18" data-name="Ellipse 18" cx="3.5" cy="3.5" r="3.5" transform="translate(50.138 53.655)" fill="#424a60"/>
      <ellipse id="Ellipse_19" data-name="Ellipse 19" cx="4" cy="3.5" rx="4" ry="3.5" transform="translate(74.138 53.655)" fill="#424a60"/>
      <circle id="Ellipse_20" data-name="Ellipse 20" cx="3.5" cy="3.5" r="3.5" transform="translate(99.138 53.655)" fill="#424a60"/>
      <circle id="Ellipse_21" data-name="Ellipse 21" cx="3.5" cy="3.5" r="3.5" transform="translate(124.138 53.655)" fill="#424a60"/>
      <circle id="Ellipse_22" data-name="Ellipse 22" cx="3.5" cy="3.5" r="3.5" transform="translate(149.138 53.655)" fill="#424a60"/>
      <circle id="Ellipse_23" data-name="Ellipse 23" cx="3.5" cy="3.5" r="3.5" transform="translate(124.138 81.655)" fill="#949493"/>
      <circle id="Ellipse_24" data-name="Ellipse 24" cx="3.5" cy="3.5" r="3.5" transform="translate(149.138 81.655)" fill="#949493"/>
      <circle id="Ellipse_25" data-name="Ellipse 25" cx="3.5" cy="3.5" r="3.5" transform="translate(0.138 81.655)" fill="#efce4a"/>
      <circle id="Ellipse_26" data-name="Ellipse 26" cx="3.5" cy="3.5" r="3.5" transform="translate(25.138 81.655)" fill="#ed7161"/>
      <circle id="Ellipse_27" data-name="Ellipse 27" cx="3.5" cy="3.5" r="3.5" transform="translate(50.138 81.655)" fill="#424a60"/>
      <ellipse id="Ellipse_28" data-name="Ellipse 28" cx="4" cy="3.5" rx="4" ry="3.5" transform="translate(74.138 81.655)" fill="#424a60"/>
      <circle id="Ellipse_29" data-name="Ellipse 29" cx="3.5" cy="3.5" r="3.5" transform="translate(99.138 81.655)" fill="#424a60"/>
    </g>
    <circle id="Ellipse_30" data-name="Ellipse 30" cx="14" cy="14" r="14" transform="translate(89.5 1)" fill="#f7e6a1" stroke="#d8a852" stroke-linejoin="round" stroke-miterlimit="10" stroke-width="2"/>
    <rect id="Rectangle_2" data-name="Rectangle 2" width="206" height="25" transform="translate(0.5 40)" fill="#424a60"/>
  </g>
</svg>
