<svg xmlns="http://www.w3.org/2000/svg" width="43.66" height="62" viewBox="0 0 43.66 62">
  <g id="ico-mouse" transform="translate(-75.726)">
    <g id="Group_2" data-name="Group 2" transform="translate(75.726)">
      <g id="Group_1" data-name="Group 1">
        <path id="Path_1" data-name="Path 1" d="M97.556,0a22.028,22.028,0,0,0-21.83,22.172V39.828a21.832,21.832,0,1,0,43.66.068V22.172A22.029,22.029,0,0,0,97.556,0ZM115.28,39.9a17.727,17.727,0,1,1-35.448-.068V22.172a17.727,17.727,0,1,1,35.448,0Z" transform="translate(-75.726)" fill="#fff"/>
      </g>
    </g>
    <g id="Group_4" data-name="Group 4" transform="translate(95.503 16.971)">
      <g id="Group_3" data-name="Group 3">
        <path id="Path_2" data-name="Path 2" d="M241.1,140.15a2.053,2.053,0,0,0-2.053,2.053v7.185a2.053,2.053,0,0,0,4.106,0V142.2A2.053,2.053,0,0,0,241.1,140.15Z" transform="translate(-239.046 -140.15)" fill="#fff"/>
      </g>
    </g>
  </g>
</svg>
