<svg id="ico-wheel" xmlns="http://www.w3.org/2000/svg" width="206" height="206" viewBox="0 0 206 206">
  <path id="Path_16" data-name="Path 16" d="M214.961,203l-5,29.987a37.293,37.293,0,0,0-51.548,51.242l-27.991,8.047-27.991-8.047a37.293,37.293,0,0,0-51.548-51.242l-5-29.971,3.488-16.448a180.478,180.478,0,0,1,162.1,0Z" transform="translate(-27.42 -100.012)" fill="#393647"/>
  <path id="Path_17" data-name="Path 17" d="M340.54,203l-5,29.987a37.293,37.293,0,0,0-51.548,51.243L256,292.272V167.34a179.328,179.328,0,0,1,81.052,19.224Z" transform="translate(-153 -100.012)" fill="#1a1923"/>
  <circle id="Ellipse_31" data-name="Ellipse 31" cx="19.333" cy="19.333" r="19.333" transform="translate(83.667 87.691)" fill="#dff473"/>
  <path id="Path_18" data-name="Path 18" d="M175.832,30.168A103,103,0,0,0,30.168,175.832,103,103,0,0,0,175.832,30.168ZM103,182.431A79.431,79.431,0,1,1,182.431,103,79.519,79.519,0,0,1,103,182.431Z" transform="translate(0 0)" fill="#49566d"/>
  <path id="Path_19" data-name="Path 19" d="M256,256.615V217.95a19.333,19.333,0,1,1,0,38.665Z" transform="translate(-153 -130.259)" fill="#00ec89"/>
  <path id="Path_20" data-name="Path 20" d="M359,103A103,103,0,0,1,256,206V182.431a79.431,79.431,0,0,0,0-158.861V0A103,103,0,0,1,359,103Z" transform="translate(-153)" fill="#393647"/>
</svg>
