<svg id="ico-formula" xmlns="http://www.w3.org/2000/svg" width="235.623" height="235.623" viewBox="0 0 235.623 235.623">
  <path id="Path_21" data-name="Path 21" d="M44.268,313.777a41.852,41.852,0,0,0,0,59.121l5.374-5.372a34.246,34.246,0,0,1,0-48.375Zm0,0" transform="translate(-16.821 -164.719)" fill="#3957ff"/>
  <path id="Path_22" data-name="Path 22" d="M235.623,47.992H149.164l-24.688,84.642L116.36,116.4H102.552A49.4,49.4,0,1,0,26.6,136.221v19.417a56.984,56.984,0,1,0,69.16,89.973H224.221a11.416,11.416,0,0,0,11.4-11.4v-15.2a11.416,11.416,0,0,0-11.4-11.4H114.011v-3.8a56,56,0,0,0-26.6-47.748V136.224A49.3,49.3,0,0,0,98.544,124h13.118l14.686,29.373,28.518-97.78h80.758ZM76.007,235.661,57.9,226.609l18.106-9.052Zm7.6,2.349v-7.6H197.619v7.6Zm144.414-19v15.2a3.805,3.805,0,0,1-3.8,3.8h-19v-22.8h19A3.805,3.805,0,0,1,228.022,219.009Zm-121.612-15.2v11.4h91.209v7.6H83.608v-7.6H98.631v-7.6H78.915l-38,19,38,19h4.45a49.392,49.392,0,1,1-51.058-84.543l1.9-1.1V139.193h45.6V154.4h-38V162h40.72a48.522,48.522,0,0,1,23.886,41.8ZM53.205,97.389a3.8,3.8,0,1,1,3.8,3.8A3.807,3.807,0,0,1,53.205,97.389Zm27.749,34.2H60.806v-23.5a11.4,11.4,0,1,0-7.6,0v23.5H33.051A41.814,41.814,0,1,1,94.2,116.4H76.007V124H89.16a41.873,41.873,0,0,1-8.206,7.593Zm0,0" transform="translate(0 -25.19)" fill="#3957ff"/>
  <path id="Path_23" data-name="Path 23" d="M359.717,117.721l16.315-16.315,16.315,16.315,5.374-5.374L381.406,96.032l16.315-16.315-5.374-5.374L376.032,90.658,359.717,74.343l-5.374,5.374,16.315,16.315-16.315,16.315Zm0,0" transform="translate(-186.014 -39.027)" fill="#3957ff"/>
  <path id="Path_24" data-name="Path 24" d="M320,184h76.007v7.6H320Zm0,0" transform="translate(-167.985 -96.592)" fill="#3957ff"/>
  <path id="Path_25" data-name="Path 25" d="M320,216h76.007v7.6H320Zm0,0" transform="translate(-167.985 -113.39)" fill="#3957ff"/>
  <path id="Path_26" data-name="Path 26" d="M320,248h76.007v7.6H320Zm0,0" transform="translate(-167.985 -130.189)" fill="#3957ff"/>
  <path id="Path_27" data-name="Path 27" d="M112,0h7.6V15.2H112Zm0,0" transform="translate(-58.795)" fill="#3957ff"/>
  <path id="Path_28" data-name="Path 28" d="M6.859,44.237l5.374-5.374,10.75,10.75-5.374,5.374Zm0,0" transform="translate(-3.601 -20.401)" fill="#3957ff"/>
  <path id="Path_29" data-name="Path 29" d="M199.2,49.611l10.748-10.748,5.374,5.374L204.569,54.985Zm0,0" transform="translate(-104.568 -20.401)" fill="#3957ff"/>
</svg>
