<svg id="ico-steering-wheel" xmlns="http://www.w3.org/2000/svg" width="61.732" height="61.732" viewBox="0 0 61.732 61.732">
  <path id="Path_3" data-name="Path 3" d="M52.691,9.04A30.866,30.866,0,0,0,9.04,52.691,30.866,30.866,0,0,0,52.691,9.04ZM30.866,7.063A23.844,23.844,0,0,1,53.235,22.725a52.062,52.062,0,0,0-44.738,0A23.844,23.844,0,0,1,30.866,7.063Zm0,29.6a5.793,5.793,0,1,1,5.793-5.793A5.8,5.8,0,0,1,30.866,36.659ZM8.985,40.237l1.133-.716a8.373,8.373,0,0,1,11.572,11.5l-.882,1.413a23.95,23.95,0,0,1-11.823-12.2Zm31.937,12.2-.881-1.413a8.373,8.373,0,0,1,11.572-11.5l1.133.716a23.949,23.949,0,0,1-11.824,12.2Z" transform="translate(0)" fill="#fff"/>
  <circle id="Ellipse_1" data-name="Ellipse 1" cx="2.176" cy="2.176" r="2.176" transform="translate(28.689 28.69)" fill="#fff"/>
</svg>
