<svg xmlns="http://www.w3.org/2000/svg" width="200.697" height="205.598" viewBox="0 0 200.697 205.598">
  <g id="seat" transform="translate(-6.102 0)">
    <path id="Path_4" data-name="Path 4" d="M244.145,480.841H126.61V459.934H257.2v7.85A13.057,13.057,0,0,1,244.145,480.841Z" transform="translate(-72.117 -275.243)" fill="#e2effa"/>
    <path id="Path_5" data-name="Path 5" d="M403.19,459.934v20.907h6.472a13.057,13.057,0,0,0,13.057-13.057v-7.85H403.19Z" transform="translate(-237.634 -275.243)" fill="#caddea"/>
    <path id="Path_6" data-name="Path 6" d="M16.584,52.044l9.168-1.868a23.325,23.325,0,0,0,17.5-30.154h0A31.838,31.838,0,0,0,14.335,0h0A8.064,8.064,0,0,0,6.3,9.813Z" transform="translate(0 0)" fill="#5d6d7d"/>
    <path id="Path_7" data-name="Path 7" d="M45.655,20.022h0A31.838,31.838,0,0,0,16.742,0h0a8.026,8.026,0,0,0-6.619,3.229A31.826,31.826,0,0,1,25.711,20.022l9.122,27.688A23.333,23.333,0,0,0,45.655,20.022Z" transform="translate(-2.406 0)" fill="#50616d"/>
    <path id="Path_8" data-name="Path 8" d="M93.511,234.983l-32.748,7.272L30.8,107.651A9.419,9.419,0,0,1,40.19,96.193l8.932.184a23.7,23.7,0,0,1,21.521,14.9l3.314,8.3a199.974,199.974,0,0,1,13.526,56.957Z" transform="translate(-14.645 -57.565)" fill="#35495d"/>
    <path id="Path_9" data-name="Path 9" d="M58.918,111.279l3.314,8.3a199.974,199.974,0,0,1,13.526,56.957l6.581,62.618,18.768-4.168-6.027-58.45a199.974,199.974,0,0,0-13.526-56.957l-3.314-8.3a23.7,23.7,0,0,0-21.521-14.9l-8.932-.184a9.354,9.354,0,0,0-4.52,1.048A23.7,23.7,0,0,1,58.918,111.279Z" transform="translate(-22.241 -57.565)" fill="#2a3a4c"/>
    <path id="Path_10" data-name="Path 10" d="M231.033,361.7l-117.939,15.48c-6.635.871-11.628,7.028-11.628,14.339h0c0,7.976,5.91,14.441,13.2,14.441H252.542c6.255,0,11.326-5.548,11.326-12.391h0C263.869,374.328,248.5,359.409,231.033,361.7Z" transform="translate(-57.07 -216.318)" fill="#35495d"/>
    <path id="Path_11" data-name="Path 11" d="M412.42,361.7l-7.855,1.031c12.107,3.848,21.161,16.069,21.161,30.838h0c0,6.843-5.071,12.391-11.326,12.391h19.529c6.255,0,11.326-5.548,11.326-12.391h0C445.256,374.328,429.885,359.409,412.42,361.7Z" transform="translate(-238.457 -216.318)" fill="#2a3a4c"/>
    <path id="Path_12" data-name="Path 12" d="M101.349,432.465h25.082l-9.789-42.089a14.415,14.415,0,0,0-17.208-10.93h0a14.415,14.415,0,0,0-10.932,17.2l7.631,31.71A5.364,5.364,0,0,0,101.349,432.465Z" transform="translate(-49.104 -226.867)" fill="#d0d1d2"/>
    <path id="Path_13" data-name="Path 13" d="M123.5,390.376a14.415,14.415,0,0,0-17.208-10.93h0a14.342,14.342,0,0,0-6.678,3.515,14.343,14.343,0,0,1,4.252,7.415l9.789,42.089h19.633Z" transform="translate(-55.962 -226.867)" fill="#bfc0c1"/>
  </g>
</svg>
